<svg width="24" height="24" viewBox="0 0 24 24" fill="none" xmlns="http://www.w3.org/2000/svg">
<g clip-path="url(#clip0_104_11)">
<path d="M18 16C18.7956 16 19.5587 16.316 20.1213 16.8787C20.6839 17.4413 21 18.2043 21 19C21 19.7956 20.6839 20.5587 20.1213 21.1213C19.5587 21.6839 18.7956 22 18 22H17C16.7348 22 16.4804 21.8946 16.2929 21.7071C16.1054 21.5195 16 21.2652 16 21V17C16 16.7348 16.1054 16.4804 16.2929 16.2929C16.4804 16.1053 16.7348 16 17 16H18ZM18 20L18.117 19.993C18.3701 19.9629 18.6021 19.8373 18.7657 19.6418C18.9293 19.4464 19.0121 19.1958 18.9972 18.9414C18.9822 18.6869 18.8707 18.4478 18.6854 18.2728C18.5 18.0979 18.2549 18.0003 18 18V20ZM18.5 6.99997C19.163 6.99997 19.7989 7.26336 20.2678 7.7322C20.7366 8.20104 21 8.83693 21 9.49997C21 10.163 20.7366 10.7989 20.2678 11.2677C19.7989 11.7366 19.163 12 18.5 12H18V13C18 13.2449 17.91 13.4813 17.7473 13.6643C17.5845 13.8474 17.3603 13.9643 17.117 13.993L17 14C16.7348 14 16.4804 13.8946 16.2929 13.7071C16.1054 13.5195 16 13.2652 16 13V7.99997C16 7.73475 16.1054 7.4804 16.2929 7.29286C16.4804 7.10533 16.7348 6.99997 17 6.99997H18.5ZM18 9.99997H18.5C18.6326 9.99997 18.7598 9.94729 18.8536 9.85352C18.9473 9.75976 19 9.63258 19 9.49997C19 9.36736 18.9473 9.24019 18.8536 9.14642C18.7598 9.05265 18.6326 8.99997 18.5 8.99997H18V9.99997ZM13 9.99997C13.2652 9.99997 13.5196 10.1053 13.7071 10.2929C13.8946 10.4804 14 10.7348 14 11C14 11.2652 13.8946 11.5195 13.7071 11.7071C13.5196 11.8946 13.2652 12 13 12H10V18H13C13.2652 18 13.5196 18.1053 13.7071 18.2929C13.8946 18.4804 14 18.7348 14 19C14 19.2652 13.8946 19.5195 13.7071 19.7071C13.5196 19.8946 13.2652 20 13 20H10C9.46957 20 8.96086 19.7893 8.58579 19.4142C8.21071 19.0391 8 18.5304 8 18V12H6C5.49542 12.0001 5.00943 11.8096 4.63945 11.4665C4.26947 11.1234 4.04284 10.6531 4.005 10.15L4 9.99997V7.82997C3.41484 7.62309 2.90826 7.23981 2.55006 6.73295C2.19186 6.2261 1.99968 5.62062 2 4.99997L2.005 4.82397C2.037 4.28249 2.21522 3.75982 2.52067 3.31158C2.82613 2.86334 3.2474 2.5063 3.73965 2.27846C4.23191 2.05062 4.77672 1.96051 5.31612 2.0177C5.85552 2.0749 6.36932 2.27727 6.80284 2.60328C7.23637 2.92929 7.57339 3.36674 7.77805 3.86908C7.9827 4.37141 8.04734 4.91983 7.96507 5.45598C7.8828 5.99213 7.65671 6.49594 7.31085 6.9138C6.965 7.33167 6.51232 7.64794 6.001 7.82897L6 9.99997H13Z" fill="#015A7F"/>
</g>
<defs>
<clipPath id="clip0_104_11">
<rect width="24" height="24" fill="white"/>
</clipPath>
</defs>
</svg>
