<svg width="84" height="80" viewBox="0 0 84 80" fill="none" xmlns="http://www.w3.org/2000/svg">
<ellipse cx="42" cy="40" rx="42" ry="40" fill="#FFE7B5"/>
<path d="M42.5 51.7813V41.4688M57.3 52.4C55.2565 52.4 53.6 53.8775 53.6 55.7C53.6 57.5225 55.2565 59 57.3 59C59.3435 59 61 57.5225 61 55.7C61 53.8775 59.3435 52.4 57.3 52.4ZM57.3 52.4L57.3 42.9125C57.3 42.0012 56.4717 41.2625 55.45 41.2625H29.55C28.5283 41.2625 27.7 42.0012 27.7 42.9125L27.7 52.4M27.7 52.4C25.6565 52.4 24 53.8775 24 55.7C24 57.5225 25.6565 59 27.7 59C29.7435 59 31.4 57.5225 31.4 55.7C31.4 53.8775 29.7435 52.4 27.7 52.4ZM42.5 59C40.4565 59 38.8 57.5225 38.8 55.7C38.8 53.8775 40.4565 52.4 42.5 52.4C44.5435 52.4 46.2 53.8775 46.2 55.7C46.2 57.5225 44.5435 59 42.5 59ZM30.9375 34.25H54.0625C55.3397 34.25 56.375 33.3266 56.375 32.1875V28.0625C56.375 26.9234 55.3397 26 54.0625 26H30.9375C29.6603 26 28.625 26.9234 28.625 28.0625V32.1875C28.625 33.3266 29.6603 34.25 30.9375 34.25Z" stroke="#F25632" stroke-width="2" stroke-linecap="round"/>
</svg>
